<?xml version="1.0" encoding="utf-8"?>
<!-- Generator: Adobe Illustrator 25.3.1, SVG Export Plug-In . SVG Version: 6.00 Build 0)  -->
<svg version="1.1" id="Слой_1" xmlns="http://www.w3.org/2000/svg" xmlns:xlink="http://www.w3.org/1999/xlink" x="0px" y="0px"
	 viewBox="0 0 171 171" style="enable-background:new 0 0 171 171;" xml:space="preserve">
<style type="text/css">
	.st0{fill:#F94343;}
	.st1{fill:#F24545;}
	.st2{fill:#E24444;}
	.st3{fill:#F45C5C;}
	.st4{fill:#5E4939;}
	.st5{fill:#303030;}
</style>
<path class="st0" d="M39.41,30.6c-0.13-1.53-1.04-2.85-2.41-3.54C23.03,20.12,13.2,7.52,9.62,2.42c-1.05-1.5-2.89-2.18-4.67-1.74
	C3.16,1.13,1.87,2.6,1.65,4.42C-1.97,35,4.87,47.26,7.99,51.11c0.86,1.07,2.13,1.63,3.41,1.63c0.91,0,1.83-0.28,2.62-0.86
	L37.65,34.5C38.88,33.59,39.54,32.13,39.41,30.6z"/>
<path class="st0" d="M131.59,30.6c0.13-1.53,1.04-2.85,2.41-3.54c13.97-6.94,23.8-19.54,27.38-24.64c1.05-1.5,2.89-2.18,4.67-1.74
	c1.79,0.45,3.08,1.92,3.3,3.74c3.62,30.58-3.22,42.84-6.34,46.69c-0.86,1.07-2.13,1.63-3.41,1.63c-0.91,0-1.83-0.28-2.62-0.86
	L133.35,34.5C132.11,33.59,131.45,32.13,131.59,30.6z"/>
<path class="st1" d="M85.5,170.82c47.08,0,85.24-38.05,85.24-84.98c0-46.93-38.16-84.98-85.24-84.98
	c-47.08,0-85.24,38.05-85.24,84.98C0.26,132.77,38.42,170.82,85.5,170.82z"/>
<path class="st2" d="M130.09,13.3c8.49,13.21,13.41,28.92,13.41,45.78c0,46.94-38.16,84.98-85.24,84.98
	c-16.35,0-31.62-4.59-44.59-12.55c15.15,23.58,41.66,39.21,71.83,39.21c47.07,0,85.24-38.05,85.24-84.98
	C170.73,55.1,154.47,28.26,130.09,13.3z"/>
<path class="st3" d="M11.85,94.8c0-43.58,35.43-78.9,79.14-78.9c25.55,0,48.26,12.07,62.73,30.8C140.05,23.05,114.44,7.12,85.1,7.12
	c-43.71,0-79.14,35.33-79.14,78.9c0,18.11,6.12,34.78,16.41,48.1C15.67,122.55,11.85,109.12,11.85,94.8z"/>
<path class="st4" d="M50.56,98.36c-2.2-2.13-5.71,0.23-4.58,3.06c6.3,15.69,21.68,26.77,39.67,26.77
	c17.69,0,32.86-10.72,39.34-25.99c1.18-2.79-2.36-5.2-4.54-3.09C107.98,111.17,81.5,128.33,50.56,98.36z"/>
<path class="st5" d="M54.1,85.83c3.47,0,6.28-4.72,6.28-10.55s-2.81-10.55-6.28-10.55c-3.47,0-6.28,4.72-6.28,10.55
	S50.63,85.83,54.1,85.83z"/>
<path class="st5" d="M123.18,75.28c0,5.83-2.81,10.55-6.28,10.55s-6.28-4.73-6.28-10.55c0-5.83,2.81-10.55,6.28-10.55
	S123.18,69.45,123.18,75.28z"/>
<path class="st5" d="M71.8,59.3L66.08,65L47.01,45.98l5.72-5.7L71.8,59.3z"/>
<path class="st5" d="M104.91,65l-5.71-5.7l19.07-19.02l5.71,5.7L104.91,65z"/>
</svg>
