<?xml version="1.0" encoding="utf-8"?>
<!-- Generator: Adobe Illustrator 25.3.1, SVG Export Plug-In . SVG Version: 6.00 Build 0)  -->
<svg version="1.1" id="Слой_1" xmlns="http://www.w3.org/2000/svg" xmlns:xlink="http://www.w3.org/1999/xlink" x="0px" y="0px"
	 viewBox="0 0 171 171" style="enable-background:new 0 0 171 171;" xml:space="preserve">
<style type="text/css">
	.st0{fill:#FFD05D;}
	.st1{fill:#FDC453;}
	.st2{fill:#FFD77F;}
	.st3{fill:#5E4939;}
	.st4{fill:#303030;}
	.st5{fill:#F5A6AC;}
</style>
<path class="st0" d="M146.04,145.86c33.29-33.29,33.29-87.26,0-120.55c-33.29-33.29-87.26-33.29-120.55,0
	c-33.29,33.29-33.29,87.26,0,120.55S112.75,179.15,146.04,145.86z"/>
<path class="st1" d="M130.36,12.84c8.49,13.25,13.41,29.01,13.41,45.91c0,47.07-38.16,85.24-85.24,85.24
	c-16.35,0-31.62-4.61-44.59-12.59c15.15,23.65,41.66,39.32,71.83,39.32c47.07,0,85.24-38.16,85.24-85.24
	C171,54.76,154.74,27.84,130.36,12.84z"/>
<path class="st2" d="M12.12,94.58c0-43.71,35.43-79.14,79.14-79.14c25.55,0,48.26,12.11,62.73,30.9
	C140.32,22.62,114.71,6.65,85.37,6.65c-43.71,0-79.14,35.43-79.14,79.14c0,18.16,6.12,34.89,16.41,48.24
	C15.94,122.41,12.12,108.94,12.12,94.58z"/>
<path class="st3" d="M50.83,98.49c-2.2-2.13-5.71,0.23-4.58,3.07c6.3,15.74,21.68,26.85,39.67,26.85
	c17.69,0,32.86-10.75,39.34-26.07c1.18-2.79-2.36-5.21-4.54-3.1C108.25,111.33,81.77,128.54,50.83,98.49z"/>
<path class="st4" d="M63.76,73.37c-2.41-6.03-8.17-9.93-14.66-9.93c-6.35,0-12.06,3.78-14.54,9.64c-0.47,1.12-0.1,2.39,0.91,3.08
	c1.01,0.69,2.32,0.58,3.2-0.27c4.73-4.59,12.21-8.27,20.97,0.25c0.49,0.48,1.13,0.73,1.77,0.73c0.49,0,0.98-0.14,1.42-0.44
	C63.83,75.76,64.22,74.5,63.76,73.37z"/>
<path class="st4" d="M136.99,73.37c-2.41-6.03-8.17-9.93-14.66-9.93c-6.35,0-12.06,3.78-14.54,9.63c-0.48,1.12-0.1,2.39,0.9,3.08
	c1.01,0.69,2.32,0.58,3.2-0.27c4.73-4.59,12.2-8.27,20.97,0.25c0.49,0.48,1.13,0.73,1.77,0.73c0.49,0,0.98-0.14,1.42-0.44
	C137.06,75.76,137.45,74.5,136.99,73.37z"/>
<path class="st5" d="M23.1,112.99c8.22,0,14.88-6.66,14.88-14.88S31.32,83.23,23.1,83.23S8.22,89.89,8.22,98.11
	S14.88,112.99,23.1,112.99z"/>
<path class="st5" d="M148.43,112.99c8.22,0,14.88-6.66,14.88-14.88s-6.66-14.88-14.88-14.88s-14.88,6.66-14.88,14.88
	S140.21,112.99,148.43,112.99z"/>
</svg>
