<?xml version="1.0" encoding="utf-8"?>
<!-- Generator: Adobe Illustrator 25.3.1, SVG Export Plug-In . SVG Version: 6.00 Build 0)  -->
<svg version="1.1" id="Слой_1" xmlns="http://www.w3.org/2000/svg" xmlns:xlink="http://www.w3.org/1999/xlink" x="0px" y="0px"
	 viewBox="0 0 201 171" style="enable-background:new 0 0 201 171;" xml:space="preserve">
<style type="text/css">
	.st0{fill:#FFD05D;}
	.st1{fill:#FDC453;}
	.st2{fill:#FFD77F;}
	.st3{fill:#303030;}
	.st4{fill:#7CC4E8;}
	.st5{fill:#62BBE8;}
	.st6{fill:#695342;}
	.st7{fill:#F06669;}
</style>
<path class="st0" d="M184.7,99.02c7.54-46.47-24.02-90.25-70.49-97.8c-46.47-7.54-90.25,24.02-97.8,70.48
	c-7.54,46.47,24.02,90.25,70.48,97.8C133.38,177.05,177.16,145.49,184.7,99.02z"/>
<path class="st1" d="M145.13,12.63c8.49,13.25,13.41,29.01,13.41,45.91c0,47.07-38.16,85.24-85.24,85.24
	c-16.35,0-31.62-4.61-44.59-12.59c15.15,23.65,41.66,39.32,71.83,39.32c47.07,0,85.24-38.16,85.24-85.24
	C185.77,54.55,169.51,27.63,145.13,12.63z"/>
<path class="st2" d="M26.88,94.37c0-43.71,35.43-79.14,79.14-79.14c25.55,0,48.26,12.11,62.73,30.9
	c-13.67-23.72-39.28-39.69-68.62-39.69c-43.71,0-79.14,35.43-79.14,79.14c0,18.16,6.12,34.89,16.41,48.24
	C30.71,122.2,26.88,108.73,26.88,94.37z"/>
<path class="st3" d="M54.55,86.76c-1.08,0-2.14-0.48-2.85-1.39c-1.23-1.57-0.94-3.84,0.63-5.07l12.29-9.58l-12.71-7.47
	c-1.72-1.01-2.29-3.23-1.28-4.95c1.01-1.72,3.23-2.29,4.95-1.28l17.29,10.16c1.03,0.61,1.7,1.68,1.77,2.88
	c0.08,1.19-0.44,2.35-1.38,3.09L56.77,86C56.11,86.51,55.33,86.76,54.55,86.76z"/>
<path class="st3" d="M146.51,86.76c-0.78,0-1.56-0.25-2.22-0.76L127.8,73.15c-0.94-0.74-1.46-1.89-1.38-3.09
	c0.08-1.19,0.74-2.27,1.77-2.88l17.29-10.17c1.72-1.01,3.93-0.44,4.95,1.28c1.01,1.72,0.44,3.93-1.28,4.95l-12.71,7.47l12.29,9.58
	c1.57,1.23,1.86,3.5,0.63,5.07C148.65,86.28,147.58,86.76,146.51,86.76z"/>
<path class="st4" d="M154.39,82.91c-6.31,37.84,4.78,50.45,4.78,50.45c6.51,10.55,20.35,13.82,30.89,7.3
	c10.55-6.51,13.82-20.35,7.3-30.89C197.37,109.77,191.05,94.2,154.39,82.91z"/>
<path class="st5" d="M171.96,143.1c5.89,1.72,12.47,1.04,18.11-2.44c10.55-6.51,13.82-20.35,7.3-30.89c0,0-2.67-6.54-14.52-14.22
	C194.34,122.65,181.57,136.77,171.96,143.1z"/>
<path class="st4" d="M45.75,82.36C9.37,94.52,3.42,110.23,3.42,110.23c-6.26,10.7-2.67,24.45,8.03,30.71
	c10.7,6.26,24.45,2.67,30.71-8.03C42.17,132.91,52.95,120.04,45.75,82.36z"/>
<path class="st5" d="M0.81,126.09c1.24,6.02,4.93,11.5,10.64,14.85c10.7,6.26,24.45,2.67,30.71-8.03c0,0,4.53-5.42,5.75-19.49
	C29.37,136.28,10.91,131.61,0.81,126.09z"/>
<path class="st6" d="M51.7,96.67c2.77,24.52,23.57,43.58,48.83,43.58c25.26,0,46.06-19.06,48.83-43.58H51.7z"/>
<path class="st7" d="M66.8,126.83c8.8,8.32,20.66,13.42,33.73,13.42c12.5,0,23.91-4.67,32.58-12.36l-0.45-1.06
	C99.87,110.85,67.25,126.62,66.8,126.83z"/>
</svg>
