<?xml version="1.0" encoding="utf-8"?>
<!-- Generator: Adobe Illustrator 25.3.1, SVG Export Plug-In . SVG Version: 6.00 Build 0)  -->
<svg version="1.1" id="Слой_1" xmlns="http://www.w3.org/2000/svg" xmlns:xlink="http://www.w3.org/1999/xlink" x="0px" y="0px"
	 viewBox="0 0 171 171" style="enable-background:new 0 0 171 171;" xml:space="preserve">
<style type="text/css">
	.st0{fill:#FFD05D;}
	.st1{fill:#FDC453;}
	.st2{fill:#FFD77F;}
	.st3{fill:#5E4939;}
	.st4{fill:#2D292A;}
	.st5{fill:#414042;}
</style>
<path class="st0" d="M145.77,145.98c33.29-33.29,33.29-87.26,0-120.55s-87.26-33.29-120.55,0s-33.29,87.26,0,120.55
	S112.48,179.27,145.77,145.98z"/>
<path class="st1" d="M130.09,12.96c8.49,13.25,13.41,29.01,13.41,45.91c0,47.07-38.16,85.24-85.24,85.24
	c-16.35,0-31.62-4.61-44.59-12.59c15.15,23.65,41.66,39.32,71.83,39.32c47.07,0,85.24-38.16,85.24-85.24
	C170.74,54.89,154.48,27.96,130.09,12.96z"/>
<path class="st2" d="M11.85,94.7c0-43.71,35.43-79.14,79.14-79.14c25.55,0,48.26,12.11,62.73,30.9
	C140.05,22.74,114.44,6.77,85.1,6.77C41.39,6.77,5.96,42.2,5.96,85.91c0,18.16,6.12,34.89,16.41,48.24
	C15.67,122.54,11.85,109.07,11.85,94.7z"/>
<path class="st3" d="M50.56,103.61c-2.2-2.13-5.71,0.23-4.58,3.07c6.3,15.74,21.68,26.85,39.67,26.85
	c17.69,0,32.85-10.75,39.34-26.07c1.18-2.79-2.36-5.21-4.54-3.1C107.98,116.45,81.5,133.66,50.56,103.61z"/>
<path class="st4" d="M145.66,53.37l-34.61,2.87c-0.41,0-0.81,0.02-1.23,0.06c-0.31,0.04-11.46,1.37-23.88,2.1
	c-0.29,0.02-0.59,0.02-0.88,0c-12.42-0.73-23.58-2.06-23.9-2.1c-0.4-0.04-0.8-0.06-1.21-0.06l-34.61-2.87
	c-6.81-0.13-10.57,3.22-10.21,9.14c0.01,0.23,2.45,13.7,2.45,13.7c0.79,4.63,1.65,8.42,4.48,12.6c1.47,2.18,3.66,3.81,6,5.01
	c1.19,0.61,2.45,1.08,3.75,1.39c1.09,0.26,2.3,0.25,3.47,0.31c1.03,0.06,2.72,0.14,3.75,0.14h7.91c2.22,0,3.02,0,3.28,0
	c3.66,0,7.38-0.86,10.65-2.49c5.14-2.56,8.12-6.81,10.25-11.97c2.02-4.87,6.05-8.56,10.34-11.37c2.45-1.61,5.61-1.61,8.06,0
	c2.32,1.52,4.47,3.31,6.33,5.36c1.37,1.51,2.48,3.41,3.6,5.15c1.26,1.97,2.07,4.31,3.39,6.31c1.32,2.02,2.79,3.67,4.82,5.07
	c3.4,2.33,7.52,3.61,11.61,3.89c0.5,0.03,1,0.05,1.5,0.05c0.26,0,1.06,0,3.28,0h7.91c1.03,0,2.72-0.08,3.75-0.14
	c1.17-0.06,2.37-0.05,3.47-0.31c1.3-0.31,2.56-0.78,3.75-1.39c2.34-1.2,4.53-2.84,6-5.01c2.83-4.18,3.69-7.98,4.49-12.6
	c0,0,2.43-13.47,2.45-13.7C156.23,56.59,152.47,53.24,145.66,53.37z"/>
<path class="st5" d="M120.78,95.67c0.26,0,1.06,0,3.28,0h7.91c1.03,0,2.72-0.08,3.75-0.14c1.17-0.06,2.37-0.05,3.47-0.31
	c1.3-0.31,2.56-0.78,3.75-1.39c2.34-1.2,4.53-2.84,6-5.01c2.83-4.18,3.69-7.98,4.49-12.6c0,0,2.43-13.47,2.45-13.7
	c0.05-0.83,0.01-1.6-0.1-2.32c-15.94,24.68-35.28,30.65-47.7,31.81c3.32,2.16,7.26,3.36,11.2,3.62
	C119.78,95.66,120.28,95.67,120.78,95.67z"/>
<path class="st5" d="M28.06,93.83c1.19,0.61,2.45,1.08,3.75,1.39c1.09,0.26,2.3,0.25,3.47,0.31c1.03,0.06,2.72,0.14,3.75,0.14h7.91
	c2.22,0,3.02,0,3.28,0c3.66,0,7.38-0.86,10.65-2.49c5.14-2.56,8.12-6.81,10.25-11.97c1.07-2.59,2.72-4.83,4.67-6.8
	C52.74,89.69,33.55,92.09,25.61,92.35C26.39,92.91,27.22,93.4,28.06,93.83z"/>
</svg>
