<?xml version="1.0" encoding="utf-8"?>
<!-- Generator: Adobe Illustrator 25.3.1, SVG Export Plug-In . SVG Version: 6.00 Build 0)  -->
<svg version="1.1" id="Слой_1" xmlns="http://www.w3.org/2000/svg" xmlns:xlink="http://www.w3.org/1999/xlink" x="0px" y="0px"
	 viewBox="0 0 181 171" style="enable-background:new 0 0 181 171;" xml:space="preserve">
<style type="text/css">
	.st0{fill:#FFD05D;}
	.st1{fill:#FDC453;}
	.st2{fill:#FFD77F;}
	.st3{fill:#303030;}
	.st4{fill:#EE5181;}
	.st5{fill:#5E4939;}
</style>
<path class="st0" d="M155.57,145.64c33.29-33.29,33.29-87.26,0-120.55c-33.29-33.29-87.26-33.29-120.55,0
	c-33.29,33.29-33.29,87.26,0,120.55C68.31,178.93,122.28,178.93,155.57,145.64z"/>
<path class="st1" d="M139.9,12.61c8.49,13.25,13.41,29.01,13.41,45.91c0,47.07-38.16,85.24-85.24,85.24
	c-16.35,0-31.62-4.61-44.59-12.59c15.15,23.65,41.66,39.32,71.83,39.32c47.07,0,85.24-38.16,85.24-85.24
	C180.54,54.53,164.28,27.61,139.9,12.61z"/>
<path class="st2" d="M21.65,94.35c0-43.71,35.43-79.14,79.14-79.14c25.55,0,48.26,12.11,62.73,30.9
	C149.85,22.39,124.24,6.42,94.9,6.42c-43.71,0-79.14,35.43-79.14,79.14c0,18.16,6.12,34.89,16.41,48.24
	C25.48,122.18,21.65,108.71,21.65,94.35z"/>
<path class="st3" d="M73.3,67.52c-2.41-6.03-8.17-9.93-14.66-9.93c-6.35,0-12.06,3.78-14.54,9.64c-0.47,1.12-0.1,2.39,0.91,3.08
	c1.01,0.69,2.32,0.58,3.2-0.27c4.73-4.59,12.21-8.27,20.97,0.25c0.49,0.48,1.13,0.73,1.77,0.73c0.49,0,0.98-0.14,1.42-0.44
	C73.36,69.91,73.75,68.65,73.3,67.52z"/>
<path class="st3" d="M146.53,67.52c-2.41-6.03-8.17-9.93-14.66-9.93c-6.35,0-12.06,3.78-14.54,9.63c-0.48,1.12-0.1,2.39,0.9,3.08
	c1.01,0.69,2.32,0.58,3.2-0.27c4.73-4.59,12.2-8.27,20.97,0.25c0.49,0.48,1.13,0.73,1.77,0.73c0.49,0,0.98-0.14,1.42-0.44
	C146.59,69.91,146.98,68.65,146.53,67.52z"/>
<path class="st4" d="M57.19,101.43c0-0.05,0-0.09,0-0.14c0-8.51-6.15-16.29-15.4-16.29c-7.35,0-11.61,5.28-13.07,10.23
	C27.27,90.29,23,85,15.65,85c-9.25,0-15.4,7.79-15.4,16.29c0,0.05,0,0.09,0,0.14c-0.05,1.85,0,20.68,28.45,36.03
	C57.2,122.11,57.24,103.28,57.19,101.43z"/>
<path class="st5" d="M95.3,132.76c-7.75,0-14.05-6.3-14.05-14.05c0-3.37,1.19-6.57,3.33-9.08c-2.14-2.52-3.33-5.71-3.33-9.08
	c0-7.75,6.3-14.05,14.05-14.05c4.72,0,9.1,2.35,11.71,6.29c0.74,1.11,0.43,2.6-0.67,3.34c-1.11,0.74-2.6,0.43-3.34-0.67
	c-1.72-2.59-4.6-4.14-7.7-4.14c-5.09,0-9.24,4.14-9.24,9.24c0,2.81,1.26,5.44,3.47,7.2c0.57,0.46,0.9,1.15,0.9,1.88
	c0,0.73-0.33,1.42-0.9,1.88c-2.2,1.77-3.47,4.39-3.47,7.2c0,5.09,4.14,9.24,9.24,9.24c3.07,0,5.94-1.52,7.66-4.07
	c0.74-1.1,2.24-1.39,3.34-0.65c1.1,0.74,1.39,2.24,0.65,3.34C104.33,130.45,99.98,132.76,95.3,132.76z"/>
</svg>
