<?xml version="1.0" encoding="utf-8"?>
<!-- Generator: Adobe Illustrator 25.3.1, SVG Export Plug-In . SVG Version: 6.00 Build 0)  -->
<svg version="1.1" id="Слой_1" xmlns="http://www.w3.org/2000/svg" xmlns:xlink="http://www.w3.org/1999/xlink" x="0px" y="0px"
	 viewBox="0 0 171 171" style="enable-background:new 0 0 171 171;" xml:space="preserve">
<style type="text/css">
	.st0{fill:#FFD05D;}
	.st1{fill:#FDC453;}
	.st2{fill:#FFD77F;}
	.st3{fill:#5E4939;}
	.st4{fill:#303030;}
	.st5{fill:#F5A6AC;}
</style>
<path class="st0" d="M145.86,145.87c33.29-33.29,33.29-87.26,0-120.55c-33.29-33.29-87.26-33.29-120.55,0
	c-33.29,33.29-33.29,87.26,0,120.55C58.61,179.16,112.58,179.16,145.86,145.87z"/>
<path class="st1" d="M130.2,12.84c8.49,13.25,13.41,29.01,13.41,45.91c0,47.07-38.16,85.24-85.24,85.24
	c-16.35,0-31.62-4.61-44.59-12.59c15.15,23.65,41.66,39.32,71.83,39.32c47.07,0,85.24-38.16,85.24-85.24
	C170.84,54.76,154.58,27.84,130.2,12.84z"/>
<path class="st2" d="M11.95,94.58c0-43.71,35.43-79.14,79.14-79.14c25.55,0,48.26,12.11,62.73,30.9
	C140.15,22.62,114.54,6.65,85.2,6.65c-43.71,0-79.14,35.43-79.14,79.14c0,18.16,6.12,34.89,16.41,48.24
	C15.78,122.41,11.95,108.94,11.95,94.58z"/>
<path class="st3" d="M50.66,94.37c-2.2-2.13-5.71,0.23-4.58,3.07c6.3,15.74,21.68,26.85,39.67,26.85
	c17.69,0,32.86-10.75,39.34-26.07c1.18-2.79-2.36-5.21-4.54-3.1C108.08,107.22,81.6,124.43,50.66,94.37z"/>
<path class="st4" d="M107.61,66.94c2.41,6.03,8.17,9.93,14.66,9.93c6.35,0,12.06-3.78,14.54-9.64c0.47-1.12,0.1-2.39-0.91-3.08
	c-1.01-0.69-2.32-0.58-3.2,0.27c-4.73,4.59-12.21,8.27-20.97-0.25c-0.49-0.48-1.13-0.73-1.77-0.73c-0.49,0-0.98,0.14-1.42,0.44
	C107.54,64.56,107.15,65.81,107.61,66.94z"/>
<path class="st4" d="M34.37,66.94c2.41,6.03,8.17,9.93,14.66,9.93c6.35,0,12.06-3.78,14.54-9.63c0.48-1.12,0.1-2.39-0.9-3.08
	c-1.01-0.69-2.32-0.58-3.2,0.27c-4.73,4.59-12.2,8.27-20.97-0.25c-0.49-0.48-1.13-0.73-1.77-0.73c-0.49,0-0.98,0.14-1.42,0.44
	C34.31,64.56,33.92,65.81,34.37,66.94z"/>
<path class="st5" d="M148.27,112.33c8.22,0,14.88-6.66,14.88-14.88s-6.66-14.88-14.88-14.88s-14.88,6.66-14.88,14.88
	S140.05,112.33,148.27,112.33z"/>
</svg>
