<?xml version="1.0" encoding="utf-8"?>
<!-- Generator: Adobe Illustrator 25.3.1, SVG Export Plug-In . SVG Version: 6.00 Build 0)  -->
<svg version="1.1" id="Слой_1" xmlns="http://www.w3.org/2000/svg" xmlns:xlink="http://www.w3.org/1999/xlink" x="0px" y="0px"
	 viewBox="0 0 184 171" style="enable-background:new 0 0 184 171;" xml:space="preserve">
<style type="text/css">
	.st0{fill:#FFD05D;}
	.st1{fill:#FDC453;}
	.st2{fill:#FFD77F;}
	.st3{fill:#5E4939;}
	.st4{fill:#303030;}
	.st5{fill:#FFFFFF;}
	.st6{fill:#F1F2F2;}
</style>
<path class="st0" d="M145.92,145.87c33.29-33.29,33.29-87.26,0-120.55c-33.29-33.29-87.26-33.29-120.55,0
	c-33.29,33.29-33.29,87.26,0,120.55S112.63,179.16,145.92,145.87z"/>
<path class="st1" d="M130.25,12.85c8.49,13.25,13.41,29.01,13.41,45.91c0,47.07-38.16,85.24-85.24,85.24
	c-16.35,0-31.62-4.61-44.59-12.59c15.15,23.65,41.66,39.32,71.83,39.32c47.07,0,85.24-38.16,85.24-85.24
	C170.89,54.78,154.63,27.85,130.25,12.85z"/>
<path class="st2" d="M12,94.59c0-43.71,35.43-79.14,79.14-79.14c25.55,0,48.26,12.11,62.73,30.9C140.2,22.63,114.59,6.66,85.25,6.66
	C41.54,6.66,6.11,42.09,6.11,85.8c0,18.16,6.12,34.89,16.41,48.24C15.83,122.43,12,108.96,12,94.59z"/>
<path class="st3" d="M117.88,96.45c0.89-0.1,1.4,1,1.39,1.82c-0.04,3.79-1.05,7.66-3,11.5c-1.85,3.53-4.5,6.81-7.67,9.49
	c-6.29,5.26-14.65,8.29-22.94,8.32c-8.44,0.16-16.87-2.88-23.1-8.27c-6.47-5.53-10.41-13.39-10.53-21.02
	c-0.01-0.87,0.57-2,1.54-1.82c0.8,0.14,1.45,1.23,2.04,1.72c0.91,0.76,1.85,1.47,2.82,2.15c1.93,1.36,3.95,2.58,6.04,3.69
	c7.68,4.1,16.38,6.31,25.1,5.55c5.55-0.48,10.94-2.15,15.89-4.69c2.97-1.52,5.79-3.34,8.44-5.37c1.01-0.77,2.66-2.83,3.9-3.07
	C117.83,96.45,117.86,96.45,117.88,96.45z"/>
<path class="st4" d="M59.53,70.35c0,5.85-2.81,10.59-6.28,10.59c-3.47,0-6.28-4.74-6.28-10.59c0-5.85,2.81-10.59,6.28-10.59
	C56.72,59.76,59.53,64.5,59.53,70.35z"/>
<path class="st4" d="M129.53,73.86c-2.41-6.03-8.17-9.93-14.66-9.93c-6.35,0-12.06,3.78-14.54,9.63c-0.48,1.12-0.1,2.39,0.9,3.08
	c1.01,0.69,2.32,0.58,3.2-0.27c4.73-4.59,12.2-8.27,20.97,0.25c0.49,0.48,1.13,0.73,1.77,0.73c0.49,0,0.98-0.14,1.42-0.44
	C129.6,76.25,129.99,74.99,129.53,73.86z"/>
<path class="st5" d="M153.87,7.33c-6.27,30.44-30.12,37.6-30.12,37.6s23.85,7.16,30.12,37.6c6.27-30.44,30.12-37.6,30.12-37.6
	S160.14,37.76,153.87,7.33z"/>
<path class="st6" d="M153.87,7.33c-6.27,30.44-30.12,37.6-30.12,37.6S155.77,49.61,153.87,7.33z"/>
</svg>
