<?xml version="1.0" encoding="utf-8"?>
<!-- Generator: Adobe Illustrator 25.3.1, SVG Export Plug-In . SVG Version: 6.00 Build 0)  -->
<svg version="1.1" id="Слой_1" xmlns="http://www.w3.org/2000/svg" xmlns:xlink="http://www.w3.org/1999/xlink" x="0px" y="0px"
	 viewBox="0 0 171 171" style="enable-background:new 0 0 171 171;" xml:space="preserve">
<style type="text/css">
	.st0{fill:#FFD05D;}
	.st1{fill:#FDC453;}
	.st2{fill:#FFD77F;}
	.st3{fill:#303030;}
	.st4{fill:#695342;}
	.st5{fill:#F06669;}
	.st6{fill:#C64F58;}
	.st7{fill:#E05F65;}
</style>
<path class="st0" d="M145.98,145.98c33.29-33.29,33.29-87.26,0-120.55c-33.29-33.29-87.26-33.29-120.55,0
	c-33.29,33.29-33.29,87.26,0,120.55S112.69,179.27,145.98,145.98z"/>
<path class="st1" d="M130.32,12.96c8.49,13.25,13.41,29.01,13.41,45.91c0,47.07-38.16,85.24-85.24,85.24
	c-16.35,0-31.62-4.61-44.59-12.59c15.15,23.65,41.66,39.32,71.83,39.32c47.07,0,85.24-38.16,85.24-85.24
	C170.96,54.89,154.7,27.96,130.32,12.96z"/>
<path class="st2" d="M12.07,94.71c0-43.71,35.43-79.14,79.14-79.14c25.55,0,48.26,12.11,62.73,30.9
	C140.27,22.75,114.66,6.78,85.32,6.78c-43.71,0-79.14,35.43-79.14,79.14c0,18.16,6.12,34.89,16.41,48.24
	C15.9,122.54,12.07,109.07,12.07,94.71z"/>
<path class="st3" d="M39.75,87.09c-1.08,0-2.14-0.48-2.85-1.39c-1.23-1.57-0.94-3.84,0.63-5.07l12.29-9.58l-12.71-7.47
	c-1.72-1.01-2.29-3.23-1.28-4.95c1.01-1.72,3.23-2.29,4.95-1.28l17.29,10.17c1.03,0.61,1.7,1.68,1.77,2.88
	c0.08,1.19-0.44,2.35-1.38,3.09L41.97,86.34C41.31,86.84,40.52,87.09,39.75,87.09z"/>
<path class="st3" d="M131.7,87.09c-0.78,0-1.56-0.25-2.22-0.76l-16.49-12.85c-0.94-0.74-1.46-1.89-1.38-3.09
	c0.08-1.19,0.74-2.27,1.77-2.88l17.29-10.17c1.72-1.01,3.93-0.44,4.95,1.28c1.01,1.72,0.44,3.93-1.28,4.95l-12.71,7.47l12.29,9.58
	c1.57,1.23,1.86,3.5,0.63,5.07C133.84,86.61,132.78,87.09,131.7,87.09z"/>
<path class="st4" d="M43.13,98.79c2.41,16.5,20.56,29.33,42.59,29.33c22.03,0,40.18-12.83,42.59-29.33H43.13z"/>
<path class="st5" d="M60.3,98.79v33.24c0,13.98,11.44,25.42,25.42,25.42s25.42-11.44,25.42-25.42V98.79H60.3z"/>
<path class="st6" d="M85.72,136.67c-1.25,0-2.27-1.02-2.27-2.27V98.79h4.54v35.61C88,135.65,86.98,136.67,85.72,136.67z"/>
<path class="st7" d="M85.72,157.45c13.81,0,25.13-11.16,25.41-24.91c-16.22,15.78-33.47,17.79-43.51,17.28
	C72.24,154.52,78.65,157.45,85.72,157.45z"/>
</svg>
