<?xml version="1.0" encoding="utf-8"?>
<!-- Generator: Adobe Illustrator 25.3.1, SVG Export Plug-In . SVG Version: 6.00 Build 0)  -->
<svg version="1.1" id="Слой_1" xmlns="http://www.w3.org/2000/svg" xmlns:xlink="http://www.w3.org/1999/xlink" x="0px" y="0px"
	 viewBox="0 0 44 44" style="enable-background:new 0 0 44 44;" xml:space="preserve">
<style type="text/css">
	.st0{fill:#343434;}
</style>
<path class="st0" d="M33.69,7.68c-0.52,0-1.03,0.15-1.46,0.44c-0.43,0.29-0.77,0.7-0.97,1.18c-0.2,0.48-0.25,1.01-0.15,1.52
	c0.1,0.51,0.35,0.98,0.72,1.35c0.37,0.37,0.84,0.62,1.35,0.72c0.51,0.1,1.04,0.05,1.52-0.15c0.48-0.2,0.89-0.54,1.18-0.97
	c0.29-0.43,0.44-0.94,0.44-1.46c0-0.7-0.28-1.37-0.77-1.86C35.06,7.95,34.39,7.68,33.69,7.68z M43.77,12.98
	c-0.04-1.82-0.38-3.61-1.01-5.32c-0.56-1.46-1.42-2.78-2.54-3.88c-1.08-1.12-2.41-1.98-3.88-2.52c-1.7-0.64-3.5-0.99-5.32-1.03
	C28.7,0.1,27.96,0.1,22,0.1c-5.96,0-6.7,0-9.02,0.13c-1.82,0.04-3.62,0.39-5.32,1.03C6.19,1.8,4.87,2.66,3.78,3.78
	C2.66,4.86,1.8,6.19,1.26,7.66c-0.64,1.7-0.99,3.5-1.03,5.32C0.1,15.3,0.1,16.04,0.1,22c0,5.96,0,6.7,0.13,9.02
	c0.04,1.82,0.39,3.62,1.03,5.32c0.53,1.47,1.4,2.79,2.52,3.88c1.09,1.12,2.41,1.98,3.88,2.52c1.7,0.64,3.5,0.99,5.32,1.03
	C15.3,43.9,16.04,43.9,22,43.9c5.96,0,6.7,0,9.02-0.13c1.82-0.04,3.62-0.39,5.32-1.03c1.47-0.53,2.79-1.4,3.88-2.52
	c1.12-1.09,1.99-2.41,2.54-3.88c0.62-1.71,0.96-3.5,1.01-5.32c0-2.32,0.13-3.07,0.13-9.02C43.9,16.04,43.9,15.3,43.77,12.98z
	 M39.83,30.76c-0.02,1.39-0.27,2.77-0.74,4.07c-0.35,0.95-0.91,1.81-1.64,2.52c-0.71,0.72-1.57,1.28-2.52,1.64
	c-1.31,0.48-2.68,0.73-4.07,0.74c-2.19,0.11-3,0.13-8.76,0.13s-6.57,0-8.76-0.13c-1.44,0.03-2.88-0.2-4.25-0.66
	c-0.91-0.38-1.73-0.94-2.41-1.64c-0.73-0.7-1.28-1.57-1.62-2.52c-0.53-1.32-0.83-2.73-0.88-4.16c0-2.19-0.13-3-0.13-8.76
	c0-5.76,0-6.57,0.13-8.76c0.01-1.42,0.27-2.83,0.77-4.16c0.39-0.92,0.98-1.75,1.73-2.41c0.67-0.75,1.49-1.35,2.41-1.75
	c1.33-0.48,2.74-0.73,4.16-0.74c2.19,0,3-0.13,8.76-0.13c5.76,0,6.57,0,8.76,0.13c1.39,0.02,2.77,0.27,4.07,0.74
	c1,0.37,1.89,0.97,2.61,1.75c0.72,0.67,1.28,1.5,1.64,2.41c0.49,1.33,0.74,2.74,0.74,4.16c0.11,2.19,0.13,3,0.13,8.76
	C39.96,27.76,39.94,28.57,39.83,30.76z M22,10.77c-2.22,0-4.39,0.67-6.24,1.9c-1.84,1.24-3.28,2.99-4.13,5.05
	c-0.85,2.05-1.07,4.31-0.63,6.49c0.44,2.18,1.51,4.18,3.08,5.75c1.57,1.57,3.57,2.64,5.75,3.07c2.18,0.43,4.44,0.21,6.49-0.64
	c2.05-0.85,3.8-2.29,5.04-4.14c1.23-1.85,1.89-4.02,1.89-6.24c0-1.48-0.29-2.94-0.85-4.31c-0.57-1.37-1.39-2.61-2.44-3.65
	c-1.05-1.04-2.29-1.87-3.66-2.43C24.94,11.05,23.48,10.76,22,10.77z M22,29.29c-1.44,0-2.85-0.43-4.05-1.23
	c-1.2-0.8-2.13-1.94-2.69-3.27c-0.55-1.33-0.7-2.8-0.41-4.21c0.28-1.41,0.98-2.71,2-3.73c1.02-1.02,2.32-1.71,3.73-2
	c1.41-0.28,2.88-0.14,4.21,0.41c1.33,0.55,2.47,1.49,3.27,2.69c0.8,1.2,1.23,2.61,1.23,4.05c0,0.96-0.19,1.91-0.56,2.79
	c-0.37,0.88-0.9,1.69-1.58,2.37c-0.68,0.68-1.48,1.21-2.37,1.58C23.91,29.1,22.96,29.29,22,29.29z"/>
</svg>
