<?xml version="1.0" encoding="utf-8"?>
<!-- Generator: Adobe Illustrator 25.3.1, SVG Export Plug-In . SVG Version: 6.00 Build 0)  -->
<svg version="1.1" id="Слой_1" xmlns="http://www.w3.org/2000/svg" xmlns:xlink="http://www.w3.org/1999/xlink" x="0px" y="0px"
	 viewBox="0 0 171 171" style="enable-background:new 0 0 171 171;" xml:space="preserve">
<style type="text/css">
	.st0{fill:#FFD05D;}
	.st1{fill:#FDC453;}
	.st2{fill:#FFD77F;}
	.st3{fill:#695342;}
	.st4{fill:#F06669;}
	.st5{fill:#FFFFFF;}
	.st6{fill:#414042;}
</style>
<path class="st0" d="M145.98,145.98c33.29-33.29,33.29-87.26,0-120.55c-33.29-33.29-87.26-33.29-120.55,0
	c-33.29,33.29-33.29,87.26,0,120.55S112.69,179.27,145.98,145.98z"/>
<path class="st1" d="M130.32,12.95c8.49,13.25,13.41,29.01,13.41,45.91c0,47.07-38.16,85.24-85.24,85.24
	c-16.35,0-31.62-4.61-44.59-12.59c15.15,23.65,41.66,39.32,71.83,39.32c47.07,0,85.24-38.16,85.24-85.24
	C170.96,54.88,154.7,27.95,130.32,12.95z"/>
<path class="st2" d="M12.07,94.7c0-43.71,35.43-79.14,79.14-79.14c25.55,0,48.26,12.11,62.73,30.9
	C140.27,22.74,114.66,6.77,85.32,6.77C41.61,6.77,6.18,42.2,6.18,85.91c0,18.16,6.12,34.89,16.41,48.24
	C15.9,122.53,12.07,109.06,12.07,94.7z"/>
<path class="st3" d="M85.72,151.03c12.49,0,22.62-17.17,22.62-38.35c0-21.18-10.13-38.35-22.62-38.35S63.1,91.5,63.1,112.68
	C63.1,133.86,73.23,151.03,85.72,151.03z"/>
<path class="st4" d="M104.82,133.23c-16.51-9.07-29.95-3.93-37.72,1.22c4.08,10.01,10.9,16.58,18.62,16.58
	C93.75,151.03,100.8,143.93,104.82,133.23z"/>
<path class="st5" d="M64.14,74.58c7.12-14.51,4.56-30.37-5.72-35.41C48.13,34.12,34.02,41.8,26.9,56.31
	c-7.12,14.51-4.56,30.37,5.72,35.41C42.91,96.77,57.02,89.09,64.14,74.58z"/>
<path class="st5" d="M138.7,91.74c10.28-5.05,12.85-20.9,5.72-35.41c-7.12-14.51-21.23-22.19-31.51-17.14
	c-10.28,5.05-12.85,20.9-5.73,35.41C114.31,89.11,128.42,96.78,138.7,91.74z"/>
<path class="st6" d="M133.56,40.2c-1.38,0-2.5-1.12-2.5-2.5V6.46c0-1.38,1.12-2.5,2.5-2.5c1.38,0,2.5,1.12,2.5,2.5V37.7
	C136.06,39.08,134.94,40.2,133.56,40.2z"/>
<path class="st6" d="M145.1,35.14c-1.38,0-2.5-1.12-2.5-2.5V10.17c0-1.38,1.12-2.5,2.5-2.5s2.5,1.12,2.5,2.5v22.47
	C147.6,34.02,146.48,35.14,145.1,35.14z"/>
<path class="st6" d="M156.73,51.74c-1.38,0-2.5-1.12-2.5-2.5V15.59c0-1.38,1.12-2.5,2.5-2.5c1.38,0,2.5,1.12,2.5,2.5v33.65
	C159.23,50.62,158.11,51.74,156.73,51.74z"/>
</svg>
