<?xml version="1.0" encoding="utf-8"?>
<!-- Generator: Adobe Illustrator 25.3.1, SVG Export Plug-In . SVG Version: 6.00 Build 0)  -->
<svg version="1.1" id="Слой_1" xmlns="http://www.w3.org/2000/svg" xmlns:xlink="http://www.w3.org/1999/xlink" x="0px" y="0px"
	 viewBox="0 0 171 171" style="enable-background:new 0 0 171 171;" xml:space="preserve">
<style type="text/css">
	.st0{fill:#FFD05D;}
	.st1{fill:#FDC453;}
	.st2{fill:#FFD77F;}
	.st3{fill:#303030;}
</style>
<path class="st0" d="M145.98,145.82c33.29-33.29,33.29-87.26,0-120.55s-87.26-33.29-120.55,0s-33.29,87.26,0,120.55
	S112.69,179.11,145.98,145.82z"/>
<path class="st1" d="M130.29,13.19c8.49,13.25,13.41,29.01,13.41,45.91c0,47.07-38.16,85.24-85.24,85.24
	c-16.35,0-31.62-4.61-44.59-12.59c15.15,23.65,41.66,39.32,71.83,39.32c47.07,0,85.24-38.16,85.24-85.24
	C170.94,55.11,154.68,28.19,130.29,13.19z"/>
<path class="st2" d="M12.05,94.93c0-43.71,35.43-79.14,79.14-79.14c25.55,0,48.26,12.11,62.73,30.9C140.25,22.97,114.64,7,85.3,7
	C41.59,7,6.16,42.43,6.16,86.14c0,18.16,6.12,34.89,16.41,48.24C15.87,122.76,12.05,109.29,12.05,94.93z"/>
<path class="st3" d="M60.72,64.59c0,5.85-2.81,10.59-6.28,10.59s-6.28-4.74-6.28-10.59c0-5.85,2.81-10.59,6.28-10.59
	S60.72,58.74,60.72,64.59z"/>
<path class="st3" d="M123.52,64.59c0,5.85-2.81,10.59-6.28,10.59s-6.28-4.74-6.28-10.59c0-5.85,2.81-10.59,6.28-10.59
	S123.52,58.74,123.52,64.59z"/>
<path class="st3" d="M51.16,107h69c1.66,0,3,1.34,3,3l0,0c0,1.66-1.34,3-3,3h-69c-1.66,0-3-1.34-3-3l0,0
	C48.16,108.34,49.5,107,51.16,107z"/>
</svg>
