<?xml version="1.0" encoding="utf-8"?>
<!-- Generator: Adobe Illustrator 25.3.1, SVG Export Plug-In . SVG Version: 6.00 Build 0)  -->
<svg version="1.1" id="Слой_1" xmlns="http://www.w3.org/2000/svg" xmlns:xlink="http://www.w3.org/1999/xlink" x="0px" y="0px"
	 viewBox="0 0 171 171" style="enable-background:new 0 0 171 171;" xml:space="preserve">
<style type="text/css">
	.st0{fill:#FFD05D;}
	.st1{fill:#FDC453;}
	.st2{fill:#FFD77F;}
	.st3{fill:#5E4939;}
	.st4{fill:#303030;}
</style>
<path class="st0" d="M145.98,145.98c33.29-33.29,33.29-87.26,0-120.55s-87.26-33.29-120.55,0s-33.29,87.26,0,120.55
	S112.69,179.27,145.98,145.98z"/>
<path class="st1" d="M130.31,12.96c8.49,13.25,13.41,29.01,13.41,45.91c0,47.07-38.16,85.24-85.24,85.24
	c-16.35,0-31.62-4.61-44.59-12.59c15.15,23.65,41.66,39.32,71.83,39.32c47.07,0,85.24-38.16,85.24-85.24
	C170.96,54.89,154.7,27.96,130.31,12.96z"/>
<path class="st2" d="M12.07,94.71c0-43.71,35.43-79.14,79.14-79.14c25.55,0,48.26,12.11,62.73,30.9
	C140.27,22.75,114.66,6.78,85.32,6.78c-43.71,0-79.14,35.43-79.14,79.14c0,18.16,6.12,34.89,16.41,48.24
	C15.89,122.54,12.07,109.07,12.07,94.71z"/>
<path class="st3" d="M50.78,98.61c-2.2-2.13-5.71,0.23-4.58,3.07c6.3,15.74,21.68,26.85,39.67,26.85
	c17.69,0,32.85-10.75,39.34-26.07c1.18-2.79-2.36-5.21-4.54-3.1C108.2,111.45,81.72,128.66,50.78,98.61z"/>
<path class="st4" d="M60.6,70.46c0,5.85-2.81,10.59-6.28,10.59s-6.28-4.74-6.28-10.59c0-5.85,2.81-10.59,6.28-10.59
	S60.6,64.61,60.6,70.46z"/>
<path class="st4" d="M123.4,70.46c0,5.85-2.81,10.59-6.28,10.59s-6.28-4.74-6.28-10.59c0-5.85,2.81-10.59,6.28-10.59
	S123.4,64.61,123.4,70.46z"/>
</svg>
