<?xml version="1.0" encoding="utf-8"?>
<!-- Generator: Adobe Illustrator 25.3.1, SVG Export Plug-In . SVG Version: 6.00 Build 0)  -->
<svg version="1.1" id="Слой_1" xmlns="http://www.w3.org/2000/svg" xmlns:xlink="http://www.w3.org/1999/xlink" x="0px" y="0px"
	 viewBox="0 0 171 187" style="enable-background:new 0 0 171 187;" xml:space="preserve">
<style type="text/css">
	.st0{fill:#FFD05D;}
	.st1{fill:#FDC453;}
	.st2{fill:#FFD77F;}
	.st3{fill:#303030;}
	.st4{fill:#7CC4E8;}
	.st5{fill:#62BBE8;}
	.st6{fill:#695342;}
	.st7{fill:#F06669;}
</style>
<path class="st0" d="M145.97,162.1c33.29-33.29,33.29-87.26,0-120.55s-87.26-33.29-120.55,0s-33.29,87.26,0,120.55
	S112.68,195.38,145.97,162.1z"/>
<path class="st1" d="M130.29,29.07c8.49,13.25,13.41,29.01,13.41,45.91c0,47.07-38.16,85.24-85.24,85.24
	c-16.35,0-31.62-4.61-44.59-12.59c15.15,23.65,41.66,39.32,71.83,39.32c47.07,0,85.24-38.16,85.24-85.24
	C170.94,70.99,154.68,44.07,130.29,29.07z"/>
<path class="st2" d="M12.05,110.81c0-43.71,35.43-79.14,79.14-79.14c25.55,0,48.26,12.11,62.73,30.9
	c-13.67-23.72-39.28-39.69-68.62-39.69c-43.71,0-79.14,35.43-79.14,79.14c0,18.16,6.12,34.89,16.41,48.24
	C15.87,138.64,12.05,125.17,12.05,110.81z"/>
<path class="st3" d="M64.55,85.21c-2.41-6.03-8.17-9.93-14.66-9.93c-6.35,0-12.06,3.78-14.54,9.64c-0.47,1.12-0.1,2.39,0.91,3.08
	s2.32,0.58,3.2-0.27c4.73-4.59,12.21-8.27,20.97,0.25c0.49,0.48,1.13,0.73,1.77,0.73c0.49,0,0.98-0.14,1.42-0.44
	C64.62,87.6,65.01,86.34,64.55,85.21z"/>
<path class="st3" d="M137.78,85.21c-2.41-6.03-8.17-9.93-14.66-9.93c-6.35,0-12.06,3.78-14.54,9.63c-0.48,1.12-0.1,2.39,0.9,3.08
	c1.01,0.69,2.32,0.58,3.2-0.27c4.73-4.59,12.2-8.27,20.97,0.25c0.49,0.48,1.13,0.73,1.77,0.73c0.49,0,0.98-0.14,1.42-0.44
	C137.85,87.6,138.24,86.34,137.78,85.21z"/>
<path class="st4" d="M142.69,0.28c-25.25,28.88-22.45,45.44-22.45,45.44c0,12.4,10.05,22.45,22.45,22.45
	c12.4,0,22.45-10.05,22.45-22.45C165.14,45.71,167.94,29.15,142.69,0.28z"/>
<path class="st5" d="M126.01,60.72c4.11,4.56,10.06,7.44,16.69,7.44c12.4,0,22.45-10.05,22.45-22.45c0,0,1.17-6.96-4.88-19.72
	C155.79,55.09,137.52,60.38,126.01,60.72z"/>
<path class="st6" d="M44.15,121.28c2.38,20.25,20.28,36,42,36c21.73,0,39.61-15.74,42-36H44.15z"/>
<path class="st7" d="M56.15,145.53c7.7,7.28,18.08,11.74,29.5,11.74c10.94,0,20.92-4.09,28.5-10.81l-0.39-0.92
	C85.07,131.54,56.54,145.34,56.15,145.53z"/>
</svg>
