<?xml version="1.0" encoding="utf-8"?>
<!-- Generator: Adobe Illustrator 25.3.1, SVG Export Plug-In . SVG Version: 6.00 Build 0)  -->
<svg version="1.1" id="Слой_1" xmlns="http://www.w3.org/2000/svg" xmlns:xlink="http://www.w3.org/1999/xlink" x="0px" y="0px"
	 viewBox="0 0 171 171" style="enable-background:new 0 0 171 171;" xml:space="preserve">
<style type="text/css">
	.st0{fill:#FFD05D;}
	.st1{fill:#FDC453;}
	.st2{fill:#FFD77F;}
	.st3{fill:#303030;}
	.st4{fill:#695342;}
	.st5{fill:#F06669;}
</style>
<path class="st0" d="M145.8,145.64c33.29-33.29,33.29-87.26,0-120.55s-87.26-33.29-120.55,0s-33.29,87.26,0,120.55
	S112.51,178.93,145.8,145.64z"/>
<path class="st1" d="M130.12,12.62c8.49,13.25,13.41,29.01,13.41,45.91c0,47.07-38.16,85.24-85.24,85.24
	c-16.35,0-31.62-4.61-44.59-12.59c15.15,23.65,41.66,39.32,71.83,39.32c47.07,0,85.24-38.16,85.24-85.24
	C170.77,54.54,154.51,27.62,130.12,12.62z"/>
<path class="st2" d="M11.88,94.36c0-43.71,35.43-79.14,79.14-79.14c25.55,0,48.26,12.11,62.73,30.9
	C140.08,22.4,114.47,6.43,85.13,6.43c-43.71,0-79.14,35.43-79.14,79.14c0,18.16,6.12,34.89,16.41,48.24
	C15.7,122.19,11.88,108.72,11.88,94.36z"/>
<path class="st3" d="M60.41,64.69c0,5.85-2.81,10.59-6.28,10.59s-6.28-4.74-6.28-10.59c0-5.85,2.81-10.59,6.28-10.59
	S60.41,58.84,60.41,64.69z"/>
<path class="st3" d="M123.21,64.69c0,5.85-2.81,10.59-6.28,10.59s-6.28-4.74-6.28-10.59c0-5.85,2.81-10.59,6.28-10.59
	S123.21,58.84,123.21,64.69z"/>
<path class="st4" d="M28.25,93.43c3.25,28.76,27.64,51.12,57.28,51.12c29.63,0,54.03-22.36,57.27-51.12H28.25z"/>
<path class="st5" d="M45.97,128.81c10.32,9.75,24.24,15.74,39.56,15.74c14.66,0,28.04-5.48,38.21-14.5l-0.53-1.24
	C84.75,110.06,46.49,128.55,45.97,128.81z"/>
</svg>
