<?xml version="1.0" encoding="utf-8"?>
<!-- Generator: Adobe Illustrator 25.3.1, SVG Export Plug-In . SVG Version: 6.00 Build 0)  -->
<svg version="1.1" id="Слой_1" xmlns="http://www.w3.org/2000/svg" xmlns:xlink="http://www.w3.org/1999/xlink" x="0px" y="0px"
	 viewBox="0 0 171 171" style="enable-background:new 0 0 171 171;" xml:space="preserve">
<style type="text/css">
	.st0{fill:#FFD05D;}
	.st1{fill:#FDC453;}
	.st2{fill:#FFD77F;}
	.st3{fill:#695342;}
	.st4{fill:#F06669;}
	.st5{fill:#E62728;}
</style>
<path class="st0" d="M145.98,145.98c33.29-33.29,33.29-87.26,0-120.55c-33.29-33.29-87.26-33.29-120.55,0
	c-33.29,33.29-33.29,87.26,0,120.55S112.69,179.27,145.98,145.98z"/>
<path class="st1" d="M130.31,12.95c8.49,13.25,13.41,29.01,13.41,45.91c0,47.07-38.16,85.24-85.24,85.24
	c-16.35,0-31.62-4.61-44.59-12.59c15.15,23.65,41.66,39.32,71.83,39.32c47.07,0,85.24-38.16,85.24-85.24
	C170.95,54.87,154.69,27.95,130.31,12.95z"/>
<path class="st2" d="M12.07,94.69c0-43.71,35.43-79.14,79.14-79.14c25.55,0,48.26,12.11,62.73,30.9
	C140.27,22.73,114.66,6.76,85.32,6.76C41.61,6.76,6.18,42.19,6.18,85.9c0,18.16,6.12,34.89,16.41,48.24
	C15.89,122.52,12.07,109.05,12.07,94.69z"/>
<path class="st3" d="M49.49,103.14c2.05,18.19,17.49,32.34,36.23,32.34s34.17-14.14,36.23-32.34H49.49z"/>
<path class="st4" d="M60.69,125.52c6.53,6.17,15.33,9.96,25.02,9.96c9.28,0,17.74-3.47,24.17-9.17l-0.33-0.78
	C85.22,113.66,61.02,125.36,60.69,125.52z"/>
<path class="st5" d="M73.96,60.92c0-0.04,0-0.08,0-0.13c0-7.87-5.69-15.08-14.25-15.08c-6.8,0-10.75,4.89-12.09,9.46
	c-1.35-4.58-5.29-9.46-12.09-9.46c-8.56,0-14.25,7.21-14.25,15.08c0,0.04,0,0.08,0,0.13c-0.05,1.71,0,19.14,26.33,33.34
	C73.97,80.05,74.01,62.63,73.96,60.92z"/>
<path class="st5" d="M150.15,60.92c0-0.04,0-0.08,0-0.13c0-7.87-5.69-15.08-14.25-15.08c-6.8,0-10.75,4.89-12.09,9.46
	c-1.35-4.58-5.29-9.46-12.09-9.46c-8.56,0-14.25,7.21-14.25,15.08c0,0.04,0,0.08,0,0.13c-0.05,1.71,0,19.14,26.33,33.34
	C150.16,80.05,150.2,62.63,150.15,60.92z"/>
</svg>
