<?xml version="1.0" encoding="utf-8"?>
<!-- Generator: Adobe Illustrator 25.3.1, SVG Export Plug-In . SVG Version: 6.00 Build 0)  -->
<svg version="1.1" id="Слой_1" xmlns="http://www.w3.org/2000/svg" xmlns:xlink="http://www.w3.org/1999/xlink" x="0px" y="0px"
	 viewBox="0 0 171 189" style="enable-background:new 0 0 171 189;" xml:space="preserve">
<style type="text/css">
	.st0{fill:#FFD05D;}
	.st1{fill:#FDC453;}
	.st2{fill:#FFD77F;}
	.st3{fill:#5E4939;}
	.st4{fill:#303030;}
	.st5{fill:#7CC4E8;}
	.st6{fill:#6EBCDB;}
</style>
<path class="st0" d="M169.68,117.74c7.74-46.44-23.62-90.36-70.06-98.1C53.19,11.9,9.27,43.26,1.52,89.7
	c-7.74,46.44,23.62,90.36,70.06,98.1C118.02,195.55,161.94,164.18,169.68,117.74z"/>
<path class="st1" d="M130.18,31.03c8.49,13.25,13.41,29.01,13.41,45.91c0,47.07-38.16,85.24-85.24,85.24
	c-16.35,0-31.62-4.61-44.59-12.59c15.15,23.65,41.66,39.32,71.83,39.32c47.07,0,85.24-38.16,85.24-85.24
	C170.82,72.95,154.56,46.02,130.18,31.03z"/>
<path class="st2" d="M11.93,112.77c0-43.71,35.43-79.14,79.14-79.14c25.55,0,48.26,12.11,62.73,30.9
	c-13.67-23.72-39.28-39.69-68.62-39.69c-43.71,0-79.14,35.43-79.14,79.14c0,18.16,6.12,34.89,16.41,48.24
	C15.76,140.6,11.93,127.13,11.93,112.77z"/>
<path class="st3" d="M50.65,116.67c-2.2-2.13-5.71,0.23-4.58,3.07c6.3,15.74,21.68,26.85,39.67,26.85
	c17.69,0,32.86-10.75,39.34-26.07c1.18-2.79-2.36-5.21-4.54-3.1C108.07,129.52,81.58,146.73,50.65,116.67z"/>
<path class="st4" d="M63.58,91.56c-2.41-6.03-8.17-9.93-14.66-9.93c-6.35,0-12.06,3.78-14.54,9.64c-0.47,1.12-0.1,2.39,0.91,3.08
	c1.01,0.69,2.32,0.58,3.2-0.27c4.73-4.59,12.21-8.27,20.97,0.25c0.49,0.48,1.13,0.73,1.77,0.73c0.49,0,0.98-0.14,1.42-0.44
	C63.64,93.94,64.03,92.69,63.58,91.56z"/>
<path class="st4" d="M136.81,91.56c-2.41-6.03-8.17-9.93-14.66-9.93c-6.35,0-12.06,3.78-14.54,9.63c-0.48,1.12-0.1,2.39,0.9,3.08
	c1.01,0.69,2.32,0.58,3.2-0.27c4.73-4.59,12.2-8.27,20.97,0.25c0.49,0.48,1.13,0.73,1.77,0.73c0.49,0,0.98-0.14,1.42-0.44
	C136.87,93.94,137.26,92.69,136.81,91.56z"/>
<path class="st5" d="M139.97,15.06c-1.36-2.24-3.32-4.18-6.03-5.92c-3.84-2.44-8.23-4.22-14.25-5.78
	c-9.25-2.23-19.18-3.12-29.51-2.63c-0.91,0.04-1.64,0.77-1.68,1.69c-0.04,0.91,0.63,1.7,1.53,1.82c11.23,1.45,19.81,3.35,27.02,5.99
	c4.74,1.71,8.26,3.52,10.78,5.53c0.59,0.47,1.16,1.01,1.73,1.63c0.47,0.55,0.82,1.07,1.03,1.5c0.38,0.88,0.4,1.6,0.05,2.36
	c-0.74,1.71-3.43,3.74-7.21,5.42c-3.38,1.49-7.45,2.75-12.07,3.74c-4.36,0.93-8.82,1.59-13.28,1.98c-4.28,0.42-8.73,0.62-13.63,0.62
	c-4.7,0.02-9.27-0.21-13.64-0.63c-4.39-0.39-8.85-1.06-13.25-1.99c-4.65-1.01-8.7-2.27-12.05-3.76c-3.77-1.69-6.43-3.71-7.14-5.44
	c-0.32-0.74-0.29-1.48,0.09-2.3c0.46-0.97,1.45-2.07,2.83-3.19c2.55-2,6.09-3.8,10.83-5.51c7.24-2.63,15.83-4.52,27.03-5.95
	c0.91-0.12,1.57-0.9,1.54-1.82c-0.04-0.91-0.76-1.65-1.68-1.69C68.68,0.24,58.75,1.12,49.47,3.35C43.6,4.86,39.08,6.68,35.22,9.09
	c-2.72,1.75-4.69,3.66-6.06,5.87c-0.83,1.39-1.37,2.85-1.58,4.31c-0.25,1.5-0.11,3.1,0.39,4.74c0.77,2.5,2.41,4.83,5.04,7.16
	c1.86,1.59,4,2.98,6.75,4.39c4.02,2.05,8.64,3.69,14.54,5.18c9.2,2.24,19.05,3.36,30.13,3.41c11.06-0.03,20.91-1.13,30.14-3.37
	c5.91-1.48,10.53-3.12,14.54-5.15c2.69-1.36,4.9-2.79,6.78-4.37c1.28-1.12,2.19-2.07,2.93-3.06c0.99-1.27,1.72-2.62,2.14-3.95
	C142.06,21.34,141.67,17.92,139.97,15.06z"/>
<path class="st6" d="M135.94,31.24c1.28-1.12,2.19-2.07,2.93-3.06c0.99-1.27,1.72-2.62,2.14-3.95c0.78-2.13,0.76-4.56,0.02-6.84
	c-5.23,21.31-49.84,25.7-63.62,26.55c2.31,0.11,4.65,0.18,7.07,0.19c11.06-0.03,20.91-1.13,30.14-3.37
	c5.91-1.48,10.53-3.12,14.54-5.15C131.84,34.25,134.05,32.83,135.94,31.24z"/>
</svg>
