<?xml version="1.0" encoding="utf-8"?>
<!-- Generator: Adobe Illustrator 25.3.1, SVG Export Plug-In . SVG Version: 6.00 Build 0)  -->
<svg version="1.1" id="Слой_1" xmlns="http://www.w3.org/2000/svg" xmlns:xlink="http://www.w3.org/1999/xlink" x="0px" y="0px"
	 viewBox="0 0 171 171" style="enable-background:new 0 0 171 171;" xml:space="preserve">
<style type="text/css">
	.st0{fill:#FFD05D;}
	.st1{fill:#FDC453;}
	.st2{fill:#FFD77F;}
	.st3{fill:#303030;}
	.st4{fill:#695342;}
	.st5{fill:#F06669;}
</style>
<path class="st0" d="M145.98,145.98c33.29-33.29,33.29-87.26,0-120.55s-87.26-33.29-120.55,0s-33.29,87.26,0,120.55
	S112.69,179.27,145.98,145.98z"/>
<path class="st1" d="M130.3,12.96c8.49,13.25,13.41,29.01,13.41,45.91c0,47.07-38.16,85.24-85.24,85.24
	c-16.35,0-31.62-4.61-44.59-12.59c15.15,23.65,41.66,39.32,71.83,39.32c47.07,0,85.24-38.16,85.24-85.24
	C170.95,54.88,154.69,27.96,130.3,12.96z"/>
<path class="st2" d="M12.06,94.7c0-43.71,35.43-79.14,79.14-79.14c25.55,0,48.26,12.11,62.73,30.9
	C140.26,22.74,114.65,6.77,85.31,6.77C41.6,6.77,6.17,42.2,6.17,85.91c0,18.16,6.12,34.89,16.41,48.24
	C15.88,122.53,12.06,109.06,12.06,94.7z"/>
<path class="st3" d="M60.59,65.03c0,5.85-2.81,10.59-6.28,10.59c-3.47,0-6.28-4.74-6.28-10.59c0-5.85,2.81-10.59,6.28-10.59
	C57.78,54.44,60.59,59.18,60.59,65.03z"/>
<path class="st3" d="M123.39,65.03c0,5.85-2.81,10.59-6.28,10.59s-6.28-4.74-6.28-10.59c0-5.85,2.81-10.59,6.28-10.59
	S123.39,59.18,123.39,65.03z"/>
<path class="st4" d="M85.71,135.71c8.5,0,15.39-11.68,15.39-26.09c0-14.41-6.89-26.09-15.39-26.09c-8.5,0-15.39,11.68-15.39,26.09
	C70.32,124.03,77.21,135.71,85.71,135.71z"/>
<path class="st5" d="M98.7,123.61c-11.23-6.17-20.37-2.67-25.66,0.83c2.78,6.81,7.41,11.28,12.67,11.28
	C91.17,135.72,95.97,130.88,98.7,123.61z"/>
</svg>
