<?xml version="1.0" encoding="utf-8"?>
<!-- Generator: Adobe Illustrator 25.3.1, SVG Export Plug-In . SVG Version: 6.00 Build 0)  -->
<svg version="1.1" id="Слой_1" xmlns="http://www.w3.org/2000/svg" xmlns:xlink="http://www.w3.org/1999/xlink" x="0px" y="0px"
	 viewBox="0 0 126 44" style="enable-background:new 0 0 126 44;" xml:space="preserve">
<style type="text/css">
	.st0{fill:#343434;}
</style>
<path class="st0" d="M37.99,42.99l-0.14-0.14c1.32-2.27,2.58-4.61,3.81-7.01c1.23-2.4,2.48-4.88,3.74-7.42
	c0.5-0.99,1.09-2.25,1.77-3.74c0.72-1.5,1.55-3.24,2.45-5.24h0.14c0.32,0.23,0.68,0.34,1.09,0.34c0.95,0,2-0.43,3.13-1.29l0.14-0.14
	l-0.07,0.14h-0.07c-0.32,0.63-0.9,1.74-1.77,3.33c-0.81,1.55-1.88,3.59-3.2,6.13c3.72-5.9,6.83-8.85,9.33-8.85
	c1.68,0,2.52,0.8,2.52,2.39c0,1.32-0.57,3.24-1.7,5.78c0.95-1.32,1.74-2.39,2.39-3.2c0.63-0.86,1.11-1.46,1.43-1.77
	c1.91-2.04,3.61-3.06,5.11-3.06c1.95,0,2.93,0.95,2.93,2.86c0,1.41-0.36,2.84-1.09,4.29c-0.68,1.41-1.5,2.84-2.45,4.29
	c-0.95,1.41-1.82,2.81-2.58,4.22c-0.36,0.72-0.7,1.5-1.02,2.31c-0.27,0.77-0.41,1.47-0.41,2.11c0,0.59,0.18,1.09,0.54,1.5
	c0.36,0.36,0.98,0.54,1.83,0.54c0.63,0,1.25-0.12,1.83-0.34c0.59-0.27,1.11-0.57,1.56-0.89c1.23-0.95,2.27-2.06,3.13-3.33
	c0.86-1.27,1.61-2.54,2.25-3.81c0.64-1.27,1.2-2.34,1.7-3.2c0.14-0.23,0.27-0.3,0.41-0.21c0.14,0.05,0.16,0.18,0.07,0.41
	c-0.9,1.91-1.91,3.86-2.99,5.86c-1.08,2-2.48,3.59-4.15,4.76c-0.59,0.41-1.25,0.75-1.97,1.02c-0.68,0.27-1.41,0.41-2.18,0.41
	c-1.59,0-2.75-0.34-3.47-1.02C61.34,40.28,61,39.35,61,38.21c0-0.81,0.18-1.82,0.54-2.99c0.27-0.81,0.61-1.68,1.02-2.58
	c0.45-0.95,1.02-1.97,1.7-3.06c2.4-3.99,3.61-6.58,3.61-7.76c0-0.77-0.34-1.16-1.02-1.16c-1.91,0-4.67,2.97-8.31,8.92
	c-1.14,1.82-2.22,3.72-3.27,5.72c-1.04,1.95-2.09,3.99-3.13,6.13h-0.14c-0.32-0.09-0.61-0.16-0.89-0.21
	c-0.27-0.05-0.52-0.07-0.75-0.07c-1.36,0-2.18,0.48-2.45,1.43l-0.21-0.14c1.73-2.99,3.08-5.38,4.09-7.15
	c0.99-1.77,1.65-2.93,1.97-3.47c2.9-5.54,4.36-9.07,4.36-10.62c0-0.68-0.25-1.02-0.75-1.02c-1.86,0-4.65,3.04-8.37,9.12
	c-2.45,3.95-4.65,8.01-6.61,12.18l-0.14,0.07c-0.59-0.23-1.11-0.34-1.56-0.34c-0.77,0-1.41,0.3-1.91,0.89
	C38.35,42.7,38.08,42.99,37.99,42.99z"/>
<path class="st0" d="M13.03,43.74c-3.27,0-6.15-1.07-8.65-3.2C1.79,38.27,0.5,35.52,0.5,32.3c0-3.27,1.14-6.22,3.41-8.85
	c2.27-2.45,5.03-4.01,8.31-4.7c-0.18-0.68-0.27-1.46-0.27-2.31c0-2.18,0.52-4.38,1.56-6.61c1.09-2.36,2.49-4.1,4.22-5.24
	c3.36-2.22,7.21-3.33,11.57-3.33c3.13,0,6.56,0.57,10.28,1.7c0.59,0.14,1.7,0.5,3.33,1.09c1.68,0.54,3.88,1.32,6.61,2.31
	c2.49-1.73,4.79-2.58,6.88-2.58c2.04,0,3.06,0.77,3.06,2.31c0,1.55-1.36,2.31-4.08,2.31c-1.41,0-3.2-0.39-5.38-1.16
	c-2.68,2.81-5.24,7.3-7.69,13.48h3.61l0.14,0.14v0.41l-0.14,0.07h-3.81c-2.72,6.44-6.01,11.34-9.87,14.7v-0.07
	c-1.41,1.27-2.81,2.39-4.22,3.33c-1.41,0.9-2.81,1.65-4.22,2.25c-2.72,1.14-6.04,1.83-9.94,2.11c-0.14,0-0.27,0-0.41,0
	C13.3,43.71,13.16,43.74,13.03,43.74z M13.91,42.72c3.77,0,7.49-1.5,11.16-4.49c2.99-2.45,5.65-5.59,7.96-9.39
	c0.5-0.86,1.11-1.91,1.83-3.13c0.77-1.23,1.65-2.68,2.66-4.36h-6.06l-0.07-0.07v-0.41l0.07-0.14h6.4
	c4.4-7.08,8.03-11.69,10.89-13.82C41.09,4.47,34.73,3.24,29.7,3.24c-5.08,0-8.89,1.2-11.43,3.61c-2.86,2.77-4.29,6.17-4.29,10.21
	c0,0.23,0,0.48,0,0.75c0,0.23,0.03,0.45,0.07,0.68c0.23,0,0.41,0,0.54,0c0.18-0.05,0.36-0.07,0.54-0.07c4.31,0,6.94,1.83,7.9,5.51
	c1.77-0.77,3.38-1.97,4.84-3.61c1.68-1.82,2.52-3.59,2.52-5.31c0-0.27,0.09-0.41,0.27-0.41c0.18,0,0.27,0.09,0.27,0.27
	c0,0.05-0.03,0.12-0.07,0.21c0,0.09,0,0.18,0,0.27c-0.99,4.49-3.56,7.56-7.69,9.19c0.14,0.54,0.21,1.14,0.21,1.77
	c0,2.54-0.99,4.76-2.99,6.67c-1.95,1.82-4.22,2.72-6.81,2.72c-0.27,0-0.41-0.12-0.41-0.34c0-0.32,0.23-0.5,0.68-0.54
	c0.23-0.05,0.52-0.09,0.89-0.14c0.41-0.05,0.84-0.14,1.29-0.27c3.45-0.81,5.56-2.93,6.33-6.33c0.09-0.36,0.16-0.72,0.21-1.09
	c0.05-0.41,0.07-0.77,0.07-1.09c0-0.18-0.03-0.36-0.07-0.54c0-0.23,0-0.43,0-0.61c-0.95,0.32-1.93,0.48-2.93,0.48
	c-1.82,0-3.33-0.52-4.56-1.56c-1.27-1.04-2.16-2.4-2.66-4.08c-2.86,1.09-5.17,2.88-6.94,5.38c-1.82,2.54-2.72,5.33-2.72,8.37
	c0,3.13,1.11,5.51,3.33,7.15C8.08,41.97,10.69,42.72,13.91,42.72z M55.44,7.87c2.27,0,3.41-0.59,3.41-1.77
	c0-1.27-0.89-1.91-2.66-1.91c-2.04,0-3.92,0.84-5.65,2.52C52.72,7.48,54.35,7.87,55.44,7.87z M19.84,24.6c0.9,0,1.77-0.16,2.58-0.48
	c-0.41-1.59-1.27-2.84-2.58-3.74c-1.32-0.9-2.79-1.36-4.43-1.36c-0.18,0-0.39,0-0.61,0c-0.18,0-0.39,0.03-0.61,0.07
	c0.14,0.72,0.36,1.41,0.68,2.04c0.36,0.63,0.77,1.23,1.23,1.77C17.18,24.04,18.43,24.6,19.84,24.6z"/>
<path class="st0" d="M86.46,31.83h1.89c0.29,0,0.61,0.03,0.99,0.08c0.38,0.05,0.75,0.16,1.09,0.32c0.34,0.15,0.64,0.4,0.88,0.71
	c0.23,0.32,0.35,0.74,0.35,1.27c0,0.32-0.08,0.61-0.25,0.89c-0.17,0.27-0.39,0.51-0.65,0.7c-0.26,0.18-0.54,0.31-0.84,0.38
	c0.52,0.05,0.98,0.2,1.36,0.44c0.41,0.23,0.72,0.53,0.95,0.89c0.23,0.36,0.35,0.75,0.35,1.17c0,0.52-0.11,0.95-0.33,1.3
	c-0.21,0.33-0.49,0.61-0.84,0.81c-0.35,0.2-0.73,0.34-1.15,0.42c-0.42,0.08-0.81,0.13-1.21,0.13h-1.93c0,0,0-0.04,0-0.11
	c0.01-0.08,0.02-0.16,0.02-0.23c0-0.08,0-0.13,0-0.13h1.91c0.45,0,0.86-0.07,1.22-0.23c0.37-0.16,0.66-0.41,0.88-0.73
	c0.21-0.33,0.32-0.74,0.32-1.24c0-0.51-0.11-0.91-0.33-1.22c-0.23-0.32-0.52-0.56-0.88-0.71c-0.36-0.17-0.76-0.28-1.19-0.33
	c-0.43-0.06-0.87-0.1-1.3-0.1v-0.16c0.29,0,0.6-0.02,0.92-0.06c0.33-0.05,0.63-0.13,0.9-0.25c0.29-0.14,0.52-0.33,0.7-0.59
	c0.18-0.26,0.27-0.61,0.27-1.05c0-0.67-0.2-1.15-0.59-1.45c-0.39-0.31-0.93-0.46-1.62-0.46h-1.74c0-0.01-0.02-0.05-0.05-0.13
	c-0.02-0.08-0.05-0.16-0.06-0.23C86.47,31.86,86.46,31.83,86.46,31.83z M87.25,31.83v9.53h-1v-9.53H87.25z M86.29,40.34v1.01H85.1
	v-0.16c0,0,0.04,0,0.1,0s0.1,0,0.1,0c0.27,0,0.5-0.08,0.67-0.25c0.18-0.17,0.27-0.37,0.29-0.61L86.29,40.34L86.29,40.34z
	 M86.29,32.84h-0.05c-0.01-0.25-0.11-0.46-0.29-0.62c-0.17-0.16-0.39-0.23-0.67-0.23c0,0-0.04,0-0.1,0c-0.06,0-0.1,0-0.1,0v-0.16
	h1.19L86.29,32.84L86.29,32.84z M96.33,31.83v9.53h-1.01v-9.53H96.33z M100.6,40.86l-0.04,0.49h-4.27v-0.49H100.6z M101.49,39.08
	l-0.88,2.27H98.2l0.54-0.49c0.53,0,0.95-0.07,1.27-0.23c0.33-0.16,0.6-0.37,0.8-0.63c0.2-0.27,0.38-0.58,0.52-0.92H101.49z
	 M95.34,40.34l0.21,1.01h-1.38v-0.16c0,0,0.04,0,0.11,0s0.11,0,0.11,0c0.26,0,0.48-0.08,0.65-0.25c0.17-0.17,0.26-0.37,0.27-0.61
	L95.34,40.34L95.34,40.34z M96.28,32.84v-1.01h1.17v0.16c0,0-0.04,0-0.1,0c-0.06,0-0.1,0-0.1,0c-0.25,0-0.48,0.08-0.67,0.25
	c-0.18,0.16-0.27,0.36-0.27,0.61L96.28,32.84L96.28,32.84z M95.34,32.84h-0.04c-0.01-0.24-0.11-0.44-0.29-0.61
	c-0.18-0.17-0.41-0.25-0.67-0.25c0,0-0.04,0-0.1,0s-0.1,0-0.1,0v-0.16h1.17v1.02H95.34z M107.88,31.6c0.74,0,1.44,0.12,2.08,0.36
	c0.66,0.23,1.23,0.57,1.72,1.01c0.5,0.44,0.89,0.98,1.16,1.59c0.27,0.61,0.42,1.27,0.42,2.02c0,0.74-0.14,1.42-0.42,2.03
	c-0.27,0.61-0.66,1.13-1.16,1.57c-0.49,0.44-1.06,0.79-1.72,1.03c-0.64,0.23-1.34,0.35-2.08,0.35c-0.74,0-1.44-0.12-2.08-0.35
	c-0.64-0.24-1.22-0.59-1.72-1.03c-0.49-0.44-0.87-0.97-1.15-1.57c-0.27-0.61-0.42-1.29-0.42-2.03c0-0.74,0.14-1.41,0.42-2.02
	c0.27-0.61,0.66-1.15,1.15-1.59c0.5-0.44,1.07-0.79,1.72-1.01C106.44,31.73,107.14,31.6,107.88,31.6z M107.88,41.1
	c0.79,0,1.49-0.19,2.13-0.57c0.64-0.38,1.14-0.91,1.51-1.59c0.37-0.68,0.56-1.46,0.56-2.35c0-0.9-0.18-1.68-0.56-2.35
	c-0.37-0.68-0.88-1.21-1.51-1.59c-0.63-0.38-1.35-0.57-2.13-0.57c-0.78,0-1.47,0.19-2.11,0.57c-0.63,0.38-1.14,0.91-1.51,1.59
	c-0.37,0.67-0.56,1.46-0.56,2.35c0,0.89,0.19,1.67,0.56,2.35c0.37,0.68,0.88,1.21,1.51,1.59C106.4,40.91,107.1,41.1,107.88,41.1z
	 M120.03,31.6c0.49,0,0.94,0.04,1.36,0.11c0.43,0.06,0.84,0.17,1.22,0.32c0.39,0.14,0.76,0.32,1.11,0.54l0.35,2.24h-0.15
	c-0.15-0.62-0.39-1.14-0.73-1.54c-0.33-0.41-0.76-0.7-1.28-0.89c-0.53-0.2-1.17-0.3-1.91-0.3c-0.8,0-1.52,0.19-2.13,0.56
	c-0.6,0.36-1.07,0.88-1.41,1.55c-0.33,0.67-0.51,1.46-0.51,2.4c0,0.92,0.17,1.72,0.51,2.39c0.34,0.68,0.81,1.2,1.43,1.57
	c0.61,0.36,1.32,0.54,2.13,0.54c0.44,0,0.87-0.05,1.27-0.14c0.41-0.1,0.79-0.24,1.16-0.44c0.38-0.21,0.73-0.48,1.07-0.8l0.02-2.11
	c0.01-0.2-0.05-0.35-0.19-0.46c-0.13-0.11-0.31-0.16-0.54-0.16h-0.23v-0.16h2.91v0.16h-0.23c-0.48,0-0.71,0.21-0.71,0.63v1.91
	c-0.24,0.31-0.58,0.62-1,0.94c-0.43,0.32-0.93,0.58-1.53,0.8c-0.58,0.21-1.25,0.32-2,0.32c-1.05-0.01-1.96-0.22-2.75-0.62
	c-0.78-0.41-1.37-0.98-1.81-1.72c-0.43-0.74-0.65-1.63-0.65-2.65c0-1.04,0.22-1.93,0.65-2.67c0.43-0.74,1.04-1.31,1.83-1.72
	C118.09,31.81,118.99,31.6,120.03,31.6z"/>
</svg>
