<?xml version="1.0" encoding="utf-8"?>
<!-- Generator: Adobe Illustrator 25.3.1, SVG Export Plug-In . SVG Version: 6.00 Build 0)  -->
<svg version="1.1" id="Слой_1" xmlns="http://www.w3.org/2000/svg" xmlns:xlink="http://www.w3.org/1999/xlink" x="0px" y="0px"
	 viewBox="0 0 44 36" style="enable-background:new 0 0 44 36;" xml:space="preserve">
<style type="text/css">
	.st0{fill:#343434;}
</style>
<path class="st0" d="M43.69,4.6c-1.63,0.71-3.35,1.17-5.12,1.39c1.86-1.11,3.26-2.86,3.93-4.91c-1.75,1.04-3.66,1.77-5.66,2.16
	c-1.34-1.44-3.11-2.41-5.05-2.73c-1.94-0.33-3.94,0-5.67,0.92c-1.74,0.93-3.12,2.4-3.92,4.19c-0.81,1.79-0.99,3.8-0.53,5.71
	c-3.54-0.18-7-1.1-10.15-2.7S5.56,4.79,3.32,2.04C2.54,3.41,2.13,4.95,2.13,6.53c0,1.46,0.36,2.9,1.04,4.19
	c0.69,1.29,1.69,2.39,2.9,3.2c-1.41-0.04-2.8-0.42-4.03-1.1v0.11c0.01,2.05,0.73,4.02,2.03,5.6c1.3,1.58,3.11,2.66,5.13,3.06
	c-0.77,0.24-1.58,0.36-2.39,0.37c-0.56-0.01-1.12-0.06-1.67-0.15c0.57,1.76,1.68,3.3,3.17,4.4s3.29,1.71,5.14,1.75
	c-3.13,2.46-6.99,3.8-10.98,3.81c-0.73,0-1.45-0.04-2.17-0.13c4.07,2.62,8.8,4.01,13.64,4.01c3.34,0.03,6.65-0.6,9.75-1.85
	c3.09-1.26,5.9-3.12,8.27-5.47c2.36-2.35,4.24-5.16,5.5-8.24c1.27-3.08,1.91-6.39,1.88-9.72c0-0.37,0-0.76,0-1.15
	C41.06,7.92,42.52,6.37,43.69,4.6z"/>
</svg>
